/* XPM */
static char * bottom_right_active_xpm[] = {
"16 16 3 1",
" 	c None",
".	c #2A2A2A",
"+	c #090909",
"            ....",
"            ....",
"            ....",
"            ....",
"            ....",
"            ....",
"            ....",
"            ....",
"            ....",
"            ....",
"            ....",
"            ....",
"................",
"................",
"................",
"............... "};
