/* XPM */
static char * close_pressed_xpm[] = {
"20 24 19 1",
" 	c None",
".	c #090909",
"+	c #5C5C5C",
"@	c #242424",
"#	c #3A3A3A",
"$	c #3E85AE",
"%	c #383838",
"&	c #2F2F2F",
"*	c #393939",
"=	c #3BABEB",
"-	c #353535",
";	c #272727",
">	c #282828",
",	c #1E1E1E",
"'	c #2C2C2C",
")	c #303030",
"!	c #2A2A2A",
"~	c #212121",
"{	c #080808",
"....................",
"++++++++++++++++++++",
"@@@@@@@@@@@@@@@@@@@@",
"@@@@@@@@@@@@@@@@@@@@",
"@@@@@@@@@@@@@@@@@@@@",
"@@@@@@@@@@@@@@@@@@@@",
"@@@@@@@@@@@@@@@@@@@@",
"@@@@@@@@@@@@@@@@@@@@",
"@@@@@@@@@@@@@@@@@@@@",
"@@@@@@#$%&&*$#@@@@@@",
"@@@@@@$=$-*$=$@@@@@@",
"@@@@@@;$=$$=$;@@@@@@",
"@@@@@@>,$==$,>@@@@@@",
"@@@@@@')$==$)'@@@@@@",
"@@@@@@-$=$$=$-@@@@@@",
"@@@@@@$=$,,$=$@@@@@@",
"@@@@@@!$~@@~$!@@@@@@",
"@@@@@@@{@@@@{@@@@@@@",
"@@@@@@@@@@@@@@@@@@@@",
"@@@@@@@@@@@@@@@@@@@@",
"@@@@@@@@@@@@@@@@@@@@",
"@@@@@@@@@@@@@@@@@@@@",
"''''''''''''''''''''",
"...................."};
