/* XPM */
static char * close_prelight_xpm[] = {
"20 24 20 1",
" 	c None",
".	c #090909",
"+	c #5C5C5C",
"@	c #242424",
"#	c #494949",
"$	c #709CB5",
"%	c #464646",
"&	c #2F2F2F",
"*	c #474747",
"=	c #8FC1DE",
"-	c #434343",
";	c #272727",
">	c #282828",
",	c #1E1E1E",
"'	c #2C2C2C",
")	c #3C3C3C",
"!	c #424242",
"~	c #2A2A2A",
"{	c #212121",
"]	c #0A0A0A",
"....................",
"++++++++++++++++++++",
"@@@@@@@@@@@@@@@@@@@@",
"@@@@@@@@@@@@@@@@@@@@",
"@@@@@@@@@@@@@@@@@@@@",
"@@@@@@@@@@@@@@@@@@@@",
"@@@@@@@@@@@@@@@@@@@@",
"@@@@@@@@@@@@@@@@@@@@",
"@@@@@@@@@@@@@@@@@@@@",
"@@@@@@#$%&&*$#@@@@@@",
"@@@@@@$=$-*$=$@@@@@@",
"@@@@@@;$=$$=$;@@@@@@",
"@@@@@@>,$==$,>@@@@@@",
"@@@@@@')$==$)'@@@@@@",
"@@@@@@!$=$$=$!@@@@@@",
"@@@@@@$=$,,$=$@@@@@@",
"@@@@@@~${@@{$~@@@@@@",
"@@@@@@@]@@@@]@@@@@@@",
"@@@@@@@@@@@@@@@@@@@@",
"@@@@@@@@@@@@@@@@@@@@",
"@@@@@@@@@@@@@@@@@@@@",
"@@@@@@@@@@@@@@@@@@@@",
"''''''''''''''''''''",
"...................."};
