/* XPM */
static char * close_active_xpm[] = {
"20 24 30 1",
" 	c None",
".	c #090909",
"+	c #5C5C5C",
"@	c #242424",
"#	c #494949",
"$	c #CACACA",
"%	c #464646",
"&	c #2F2F2F",
"*	c #474747",
"=	c #CBCBCB",
"-	c #C8C8C8",
";	c #FFFFFF",
">	c #DFDFDF",
",	c #434343",
"'	c #E3E3E3",
")	c #272727",
"!	c #D9D9D9",
"~	c #DBDBDB",
"{	c #E2E2E2",
"]	c #282828",
"^	c #1E1E1E",
"/	c #D4D4D4",
"(	c #2C2C2C",
"_	c #3C3C3C",
":	c #D5D5D5",
"<	c #424242",
"[	c #2A2A2A",
"}	c #BEBEBE",
"|	c #212121",
"1	c #0A0A0A",
"....................",
"++++++++++++++++++++",
"@@@@@@@@@@@@@@@@@@@@",
"@@@@@@@@@@@@@@@@@@@@",
"@@@@@@@@@@@@@@@@@@@@",
"@@@@@@@@@@@@@@@@@@@@",
"@@@@@@@@@@@@@@@@@@@@",
"@@@@@@@@@@@@@@@@@@@@",
"@@@@@@@@@@@@@@@@@@@@",
"@@@@@@#$%&&*=#@@@@@@",
"@@@@@@-;>,*';-@@@@@@",
"@@@@@@)!;~{;!)@@@@@@",
"@@@@@@]^/;;/^]@@@@@@",
"@@@@@@(_:;;:_(@@@@@@",
"@@@@@@<>;//;><@@@@@@",
"@@@@@@-;!^^!;-@@@@@@",
"@@@@@@[}|@@|}[@@@@@@",
"@@@@@@@1@@@@1@@@@@@@",
"@@@@@@@@@@@@@@@@@@@@",
"@@@@@@@@@@@@@@@@@@@@",
"@@@@@@@@@@@@@@@@@@@@",
"@@@@@@@@@@@@@@@@@@@@",
"((((((((((((((((((((",
"...................."};
