/* XPM */
static char * hide_active_xpm[] = {
"20 24 8 1",
" 	c None",
".	c #090909",
"+	c #5C5C5C",
"@	c #242424",
"#	c #FFFFFF",
"$	c #D5D5D5",
"%	c #ACACAC",
"&	c #2C2C2C",
"....................",
"++++++++++++++++++++",
"@@@@@@@@@@@@@@@@@@@@",
"@@@@@@@@@@@@@@@@@@@@",
"@@@@@@@@@@@@@@@@@@@@",
"@@@@@@@@@@@@@@@@@@@@",
"@@@@@@@@@@@@@@@@@@@@",
"@@@@@@@@@@@@@@@@@@@@",
"@@@@@@@@@@@@@@@@@@@@",
"@@@@@@@@@@@@@@@@@@@@",
"@@@@@@@@@@@@@@@@@@@@",
"@@@@@@########@@@@@@",
"@@@@@@$$$$$$$$@@@@@@",
"@@@@@@%%%%%%%%@@@@@@",
"@@@@@@@@@@@@@@@@@@@@",
"@@@@@@@@@@@@@@@@@@@@",
"@@@@@@@@@@@@@@@@@@@@",
"@@@@@@@@@@@@@@@@@@@@",
"@@@@@@@@@@@@@@@@@@@@",
"@@@@@@@@@@@@@@@@@@@@",
"@@@@@@@@@@@@@@@@@@@@",
"@@@@@@@@@@@@@@@@@@@@",
"&&&&&&&&&&&&&&&&&&&&",
"...................."};
