/* XPM */
static char * maximize_pressed_xpm[] = {
"20 24 8 1",
" 	c None",
".	c #090909",
"+	c #5C5C5C",
"@	c #242424",
"#	c #336F91",
"$	c #3CABEA",
"%	c #3E85AE",
"&	c #2C2C2C",
"....................",
"++++++++++++++++++++",
"@@@@@@@@@@@@@@@@@@@@",
"@@@@@@@@@@@@@@@@@@@@",
"@@@@@@@@@@@@@@@@@@@@",
"@@@@@@@@@@@@@@@@@@@@",
"@@@@@@@@@@@@@@@@@@@@",
"@@@@@@@@@@#$$$$@@@@@",
"@@@@@@@@@@@#$$$@@@@@",
"@@@@@@@@@@@%$$$@@@@@",
"@@@@@@@@@@%$%#$@@@@@",
"@@@@@@@@@@@%@@#@@@@@",
"@@@@@#@@%@@@@@@@@@@@",
"@@@@@$#%$%@@@@@@@@@@",
"@@@@@$$$%@@@@@@@@@@@",
"@@@@@$$$#@@@@@@@@@@@",
"@@@@@$$$$#@@@@@@@@@@",
"@@@@@@@@@@@@@@@@@@@@",
"@@@@@@@@@@@@@@@@@@@@",
"@@@@@@@@@@@@@@@@@@@@",
"@@@@@@@@@@@@@@@@@@@@",
"@@@@@@@@@@@@@@@@@@@@",
"&&&&&&&&&&&&&&&&&&&&",
"...................."};
