/* XPM */
static char * maximize_active_xpm[] = {
"20 24 22 1",
" 	c None",
".	c #090909",
"+	c #5C5C5C",
"@	c #242424",
"#	c #979693",
"$	c #FFFFFF",
"%	c #989896",
"&	c #DCDCDC",
"*	c #C9C9C8",
"=	c #DBDBDA",
"-	c #989796",
";	c #C5C5C4",
">	c #8C8C8B",
",	c #969592",
"'	c #C8C7C6",
")	c #9D9C9A",
"!	c #D7D7D6",
"~	c #C6C6C4",
"{	c #D0D0D0",
"]	c #8D8C8C",
"^	c #93928F",
"/	c #2C2C2C",
"....................",
"++++++++++++++++++++",
"@@@@@@@@@@@@@@@@@@@@",
"@@@@@@@@@@@@@@@@@@@@",
"@@@@@@@@@@@@@@@@@@@@",
"@@@@@@@@@@@@@@@@@@@@",
"@@@@@@@@@@@@@@@@@@@@",
"@@@@@@@@@@#$$$$@@@@@",
"@@@@@@@@@@@%$$$@@@@@",
"@@@@@@@@@@@&$$$@@@@@",
"@@@@@@@@@@*$=-$@@@@@",
"@@@@@@@@@@@;@@>@@@@@",
"@@@@@,@@'@@@@@@@@@@@",
"@@@@@$)!$~@@@@@@@@@@",
"@@@@@$$${@@@@@@@@@@@",
"@@@@@$$$]@@@@@@@@@@@",
"@@@@@$$$$^@@@@@@@@@@",
"@@@@@@@@@@@@@@@@@@@@",
"@@@@@@@@@@@@@@@@@@@@",
"@@@@@@@@@@@@@@@@@@@@",
"@@@@@@@@@@@@@@@@@@@@",
"@@@@@@@@@@@@@@@@@@@@",
"////////////////////",
"...................."};
