/* XPM */
static char * maximize_inactive_xpm[] = {
"20 24 15 1",
" 	c None",
".	c #090909",
"+	c #5C5C5C",
"@	c #242424",
"#	c #979693",
"$	c #CCCCCC",
"%	c #989896",
"&	c #A8A8A8",
"*	c #989796",
"=	c #8C8C8B",
"-	c #969592",
";	c #9D9C9A",
">	c #8D8C8C",
",	c #93928F",
"'	c #2C2C2C",
"....................",
"++++++++++++++++++++",
"@@@@@@@@@@@@@@@@@@@@",
"@@@@@@@@@@@@@@@@@@@@",
"@@@@@@@@@@@@@@@@@@@@",
"@@@@@@@@@@@@@@@@@@@@",
"@@@@@@@@@@@@@@@@@@@@",
"@@@@@@@@@@#$$$$@@@@@",
"@@@@@@@@@@@%$$$@@@@@",
"@@@@@@@@@@@&$$$@@@@@",
"@@@@@@@@@@&$&*$@@@@@",
"@@@@@@@@@@@&@@=@@@@@",
"@@@@@-@@&@@@@@@@@@@@",
"@@@@@$;&$&@@@@@@@@@@",
"@@@@@$$$&@@@@@@@@@@@",
"@@@@@$$$>@@@@@@@@@@@",
"@@@@@$$$$,@@@@@@@@@@",
"@@@@@@@@@@@@@@@@@@@@",
"@@@@@@@@@@@@@@@@@@@@",
"@@@@@@@@@@@@@@@@@@@@",
"@@@@@@@@@@@@@@@@@@@@",
"@@@@@@@@@@@@@@@@@@@@",
"''''''''''''''''''''",
"...................."};
