/* XPM */
static char * shade_pressed_xpm[] = {
"20 24 9 1",
" 	c None",
".	c #090909",
"+	c #5C5C5C",
"@	c #242424",
"#	c #3E85AE",
"$	c #329EDC",
"%	c #37A0DC",
"&	c #3CABEA",
"*	c #2C2C2C",
"....................",
"++++++++++++++++++++",
"@@@@@@@@@@@@@@@@@@@@",
"@@@@@@@@@@@@@@@@@@@@",
"@@@@@@@@@@@@@@@@@@@@",
"@@@@@@@@@@@@@@@@@@@@",
"@@@@@@@@@@@@@@@@@@@@",
"@@@@@@@@@@@@@@@@@@@@",
"@@@@@@@@@@@@@@@@@@@@",
"@@@@@@@@@@@@@@@@@@@@",
"@@@@@@@@@@@@@@@@@@@@",
"@@@@@@@@@##@@@@@@@@@",
"@@@@@@@@$$$$@@@@@@@@",
"@@@@@@@%%%%%%@@@@@@@",
"@@@@@@&&&@@&&&@@@@@@",
"@@@@@@@@@@@@@@@@@@@@",
"@@@@@@@@@@@@@@@@@@@@",
"@@@@@@@@@@@@@@@@@@@@",
"@@@@@@@@@@@@@@@@@@@@",
"@@@@@@@@@@@@@@@@@@@@",
"@@@@@@@@@@@@@@@@@@@@",
"@@@@@@@@@@@@@@@@@@@@",
"********************",
"...................."};
