/* XPM */
static char * stick_prelight_xpm[] = {
"20 24 8 1",
" 	c None",
".	c #090909",
"+	c #5C5C5C",
"@	c #242424",
"#	c #709CB5",
"$	c #87B9D6",
"%	c #8FC1DE",
"&	c #2C2C2C",
"....................",
"++++++++++++++++++++",
"@@@@@@@@@@@@@@@@@@@@",
"@@@@@@@@@@@@@@@@@@@@",
"@@@@@@@@@@@@@@@@@@@@",
"@@@@@@@@@@@@@@@@@@@@",
"@@@@@@@@@@@@@@@@@@@@",
"@@@@@@@@@@@@@@@@@@@@",
"@@@@@@@@@@@@@@@@@@@@",
"@@@@@@@@####@@@@@@@@",
"@@@@@@@######@@@@@@@",
"@@@@@@##@@@@##@@@@@@",
"@@@@@@$$@@@@$$@@@@@@",
"@@@@@@$$@@@@$$@@@@@@",
"@@@@@@%%@@@@%%@@@@@@",
"@@@@@@@%%%%%%@@@@@@@",
"@@@@@@@@%%%%@@@@@@@@",
"@@@@@@@@@@@@@@@@@@@@",
"@@@@@@@@@@@@@@@@@@@@",
"@@@@@@@@@@@@@@@@@@@@",
"@@@@@@@@@@@@@@@@@@@@",
"@@@@@@@@@@@@@@@@@@@@",
"&&&&&&&&&&&&&&&&&&&&",
"...................."};
