/* XPM */
static char * stick_toggled_pressed_xpm[] = {
"20 24 8 1",
" 	c None",
".	c #090909",
"+	c #5C5C5C",
"@	c #242424",
"#	c #3E85AE",
"$	c #39A3DF",
"%	c #3CABEA",
"&	c #2C2C2C",
"....................",
"++++++++++++++++++++",
"@@@@@@@@@@@@@@@@@@@@",
"@@@@@@@@@@@@@@@@@@@@",
"@@@@@@@@@@@@@@@@@@@@",
"@@@@@@@@@@@@@@@@@@@@",
"@@@@@@@@@@@@@@@@@@@@",
"@@@@@@@@@@@@@@@@@@@@",
"@@@@@@@@@@@@#@@@@@@@",
"@@@@@@@@##@@##@@@@@@",
"@@@@@@@###@####@@@@@",
"@@@@@@##@@@##@@@@@@@",
"@@@@@@$$@@$@@@@@@@@@",
"@@@@@@$$@@@@$$@@@@@@",
"@@@@@@%%@@@@%%@@@@@@",
"@@@@@@@%%%%%%@@@@@@@",
"@@@@@@@@%%%%@@@@@@@@",
"@@@@@@@@@@@@@@@@@@@@",
"@@@@@@@@@@@@@@@@@@@@",
"@@@@@@@@@@@@@@@@@@@@",
"@@@@@@@@@@@@@@@@@@@@",
"@@@@@@@@@@@@@@@@@@@@",
"&&&&&&&&&&&&&&&&&&&&",
"...................."};
