/* XPM */
static char * stick_toggled_active_xpm[] = {
"20 24 6 1",
" 	c None",
".	c #090909",
"+	c #5C5C5C",
"@	c #242424",
"#	c #FFFFFF",
"$	c #2C2C2C",
"....................",
"++++++++++++++++++++",
"@@@@@@@@@@@@@@@@@@@@",
"@@@@@@@@@@@@@@@@@@@@",
"@@@@@@@@@@@@@@@@@@@@",
"@@@@@@@@@@@@@@@@@@@@",
"@@@@@@@@@@@@@@@@@@@@",
"@@@@@@@@@@@@@@@@@@@@",
"@@@@@@@@@@@@#@@@@@@@",
"@@@@@@@@##@@##@@@@@@",
"@@@@@@@###@####@@@@@",
"@@@@@@##@@@##@@@@@@@",
"@@@@@@##@@#@@@@@@@@@",
"@@@@@@##@@@@##@@@@@@",
"@@@@@@##@@@@##@@@@@@",
"@@@@@@@######@@@@@@@",
"@@@@@@@@####@@@@@@@@",
"@@@@@@@@@@@@@@@@@@@@",
"@@@@@@@@@@@@@@@@@@@@",
"@@@@@@@@@@@@@@@@@@@@",
"@@@@@@@@@@@@@@@@@@@@",
"@@@@@@@@@@@@@@@@@@@@",
"$$$$$$$$$$$$$$$$$$$$",
"...................."};
