/* XPM */
static char * title_1_inactive_xpm[] = {
"2 24 5 1",
" 	c None",
".	c #090909",
"+	c #5C5C5C",
"@	c #242424",
"#	c #2C2C2C",
"..",
"++",
"@@",
"@@",
"@@",
"@@",
"@@",
"@@",
"@@",
"@@",
"@@",
"@@",
"@@",
"@@",
"@@",
"@@",
"@@",
"@@",
"@@",
"@@",
"@@",
"@@",
"##",
".."};
