/* XPM */
static char * top_right_active_xpm[] = {
"8 24 5 1",
" 	c None",
".	c #090909",
"+	c #5C5C5C",
"@	c #242424",
"#	c #2C2C2C",
"...     ",
"+++..   ",
"@@@@@.  ",
"@@@@@@. ",
"@@@@@@. ",
"@@@@@@@.",
"@@@@@@@.",
"@@@@@@@.",
"@@@@@@@.",
"@@@@@@@.",
"@@@@@@@.",
"@@@@@@@.",
"@@@@@@@.",
"@@@@@@@.",
"@@@@@@@.",
"@@@@@@@.",
"@@@@@@@.",
"@@@@@@@.",
"@@@@@@@.",
"@@@@@@@.",
"@@@@@@@.",
"@@@@@@@.",
"#######.",
"........"};
